PathFileType	4	(X/Y/Z)	G:\マイドライブ\biomec\experimentalData\240725\CJ2.trc
DataRate	CameraRate	NumFrames	NumMarkers	Units	OrigDataRate	OrigDataStartFrame	OrigNumFrames
200.00	200.00	      5	52	mm	200.00	208	      1662
Frame#	Time	handR			wrRI			wrRO			elbRI			elbRO			shRF			shRU			shRB			handL			wrLI			wrLO			elbLI			elbLO			shLF			shLU			shLB			toeR			baRI			baRO			heelR			anRI			anRO			knRI			knRO			troR			toeL			baLI			baLO			heelL			anLI			anLO			knLI			knLO			troL			head			earR			earL			clav			c7			ribR			ribL			xiph			ASISR			ASISL			PSISR			PSISL			t8			t11			L1			L3			LS			COX			
		X1	Y1	Z1	X2	Y2	Z2	X3	Y3	Z3	X4	Y4	Z4	X5	Y5	Z5	X6	Y6	Z6	X7	Y7	Z7	X8	Y8	Z8	X9	Y9	Z9	X10	Y10	Z10	X11	Y11	Z11	X12	Y12	Z12	X13	Y13	Z13	X14	Y14	Z14	X15	Y15	Z15	X16	Y16	Z16	X17	Y17	Z17	X18	Y18	Z18	X19	Y19	Z19	X20	Y20	Z20	X21	Y21	Z21	X22	Y22	Z22	X23	Y23	Z23	X24	Y24	Z24	X25	Y25	Z25	X26	Y26	Z26	X27	Y27	Z27	X28	Y28	Z28	X29	Y29	Z29	X30	Y30	Z30	X31	Y31	Z31	X32	Y32	Z32	X33	Y33	Z33	X34	Y34	Z34	X35	Y35	Z35	X36	Y36	Z36	X37	Y37	Z37	X38	Y38	Z38	X39	Y39	Z39	X40	Y40	Z40	X41	Y41	Z41	X42	Y42	Z42	X43	Y43	Z43	X44	Y44	Z44	X45	Y45	Z45	X46	Y46	Z46	X47	Y47	Z47	X48	Y48	Z48	X49	Y49	Z49	X50	Y50	Z50	X51	Y51	Z51	X52	Y52	Z52	

208	1.035	284.30933	1477.57141	811.99274	289.78708	1523.88330	893.59491	340.04291	1473.13867	896.78595	418.06137	1560.82507	1109.66431	344.13181	1561.06165	1123.68982	427.68527	1466.12793	1403.16113	385.47495	1514.16528	1428.73047	387.77841	1567.53918	1393.96692	815.13647	1476.43970	774.14014	820.28467	1537.85120	850.36371	774.34473	1474.79578	856.12054	734.86853	1585.43335	1072.96521	811.08228	1588.08459	1078.87207	746.03912	1478.21033	1367.62891	787.73267	1530.04639	1386.36902	759.80731	1591.32983	1349.00281	401.72406	1392.71692	59.70688	447.28723	1474.01196	41.04054	325.17062	1494.34485	47.52784	412.27219	1677.14563	43.42719	449.68939	1589.58215	117.33496	354.88501	1608.25696	108.78412	478.80182	1521.05664	470.81311	373.72781	1507.92847	476.77249	380.07745	1488.23328	879.86548	639.55493	1389.01245	58.60170	587.49127	1458.13550	55.41349	698.51257	1489.39124	53.39083	628.68439	1673.67480	42.05291	592.49847	1582.55432	134.37196	680.44275	1605.12708	108.64796	597.74420	1532.41663	480.51474	703.08215	1512.39294	480.24115	722.04541	1472.30200	866.78821	633.07904	1429.42651	1700.27527	530.60138	1415.19006	1542.96948	685.76349	1431.65320	1520.11511	589.18073	1451.86902	1382.13074	595.45691	1562.17908	1473.37622	455.34027	1465.61230	1107.83215	675.39728	1461.65942	1093.36145	574.57214	1425.44617	1227.23206	445.05103	1424.12891	973.02307	666.48041	1419.54346	975.60303	502.17188	1595.32666	996.76093	623.39020	1587.48022	998.49329	576.33289	1640.80200	1260.20374	570.12469	1616.76782	1132.42065	569.21442	1597.96191	1075.31055	563.54608	1596.39819	1029.43359	564.74176	1602.56543	989.73779	564.56879	1625.98364	890.99091	
209	1.040	285.29532	1476.14758	812.21753	289.88730	1523.15076	894.21930	340.65231	1472.45642	897.02100	418.92847	1560.24695	1109.86255	344.95016	1559.78979	1124.10339	429.59497	1465.20850	1403.30408	387.06061	1513.40295	1428.52271	388.97198	1566.53638	1394.18115	816.45642	1477.91357	773.63159	821.31610	1539.17358	849.96497	775.67603	1475.59375	855.81873	736.06232	1586.01221	1072.45483	811.11877	1589.47424	1078.51282	747.93835	1478.55139	1367.11877	789.25336	1530.42847	1385.98694	761.02911	1591.68506	1348.53223	401.80475	1392.66235	59.47944	447.23151	1473.21777	41.15590	325.24460	1494.31543	47.58802	412.32590	1677.08167	43.54838	449.97977	1589.26453	117.37569	355.04581	1608.07886	108.96796	479.94238	1517.38123	470.38583	374.50302	1504.21533	476.37683	380.74359	1486.99646	879.87457	639.51678	1389.02405	58.57450	587.46960	1458.13892	55.40245	698.51880	1489.36023	53.37197	629.72040	1673.40393	41.14737	592.65796	1582.56042	134.33713	680.55060	1605.15125	108.59118	598.16931	1531.22888	480.28223	703.51147	1511.34009	479.92303	722.68768	1471.42236	866.52130	635.31256	1428.77209	1700.29395	532.67255	1414.69946	1542.78406	687.98242	1431.52087	1519.80786	591.09863	1451.61060	1382.05811	596.98761	1562.00476	1473.17346	456.65378	1464.63708	1107.97827	676.49915	1460.74988	1093.11108	576.22504	1424.57166	1227.20374	446.13867	1423.13464	973.20282	667.60614	1418.56433	975.39502	503.18759	1594.29004	996.63074	624.35602	1586.33459	998.24243	577.26471	1640.11133	1259.96643	571.18121	1615.73108	1132.02478	570.13751	1596.98962	1075.13232	564.38318	1595.32385	1029.22131	565.76593	1601.67859	989.48053	565.34277	1624.92249	890.59869	
210	1.045	286.12897	1475.14246	812.44806	291.02747	1521.51233	894.20990	341.71735	1471.08435	897.23212	419.66873	1559.50659	1110.12134	345.99142	1558.85413	1124.35229	431.23941	1463.96472	1403.51099	388.78769	1511.84167	1428.85535	390.49948	1565.17444	1394.11206	817.78015	1479.13892	773.24762	822.44128	1540.33533	849.71375	777.17065	1476.41919	855.34479	737.18188	1586.58044	1072.16418	811.49127	1590.42810	1077.86304	749.70325	1478.99072	1366.82434	790.77063	1530.87427	1385.58960	762.29999	1592.04834	1348.10229	401.88702	1392.55811	59.18392	447.31384	1473.17505	40.87187	325.32205	1494.28357	47.64959	412.40378	1677.00684	43.68995	450.69302	1588.18542	117.48853	355.25934	1607.83557	109.25226	481.06833	1513.35327	469.99496	375.60138	1500.12952	475.81012	381.31812	1485.97375	879.85248	639.48303	1389.04626	58.52689	587.44934	1458.13281	55.39785	698.54572	1489.38086	53.35047	629.37451	1673.50220	41.45652	592.80914	1582.50269	134.30153	680.67657	1605.12354	108.55103	598.54462	1530.49109	480.46432	704.02130	1509.89124	479.71277	723.66327	1470.04724	866.24530	637.47021	1428.66199	1699.68494	534.72821	1414.20593	1542.54041	689.89740	1431.54675	1519.46497	592.88300	1451.10132	1381.99280	598.44080	1561.81335	1472.90393	457.61145	1463.32129	1108.14624	677.54449	1460.19519	1092.82605	577.90179	1423.82861	1227.20264	446.91519	1422.35303	973.37640	668.96594	1417.02307	975.30627	503.97699	1593.43262	996.52332	625.13965	1585.36279	997.91418	578.08466	1639.58838	1259.60449	572.10559	1614.78650	1131.65271	570.92303	1596.20410	1075.02063	565.33478	1594.54138	1029.19043	566.58057	1600.66040	989.35437	565.94659	1623.95166	890.26044	
211	1.050	286.93091	1473.69043	812.72369	291.47314	1520.28003	894.82202	342.62781	1470.02661	897.62836	420.73865	1559.76709	1110.53186	346.85968	1557.69702	1124.63623	432.99109	1463.07153	1403.57678	390.17255	1510.99158	1428.81665	391.65936	1564.17529	1394.26770	818.94452	1480.53210	772.60870	823.60059	1541.52222	849.14716	778.50092	1477.31213	854.91510	738.21057	1587.11047	1072.02429	812.66644	1591.32166	1077.48816	751.26556	1479.32581	1366.50940	792.29083	1531.54846	1385.19043	763.22156	1592.48853	1347.75171	401.99948	1392.43103	58.86499	447.43045	1473.07397	40.63790	325.45154	1494.22754	47.67955	412.48691	1676.91895	43.82858	451.09741	1587.75574	117.53828	355.49661	1607.55408	109.56831	482.27390	1508.10193	469.65588	376.48169	1495.87830	475.44293	381.97705	1484.83984	879.88306	639.46674	1389.05481	58.45706	587.44751	1458.15417	55.36555	698.53723	1489.34460	53.34248	629.81677	1673.21484	41.41879	592.96039	1582.46887	134.26607	680.80151	1605.14758	108.46654	598.96704	1529.49231	480.39313	704.32623	1509.00696	479.42953	724.38727	1468.97839	866.02167	639.86847	1428.10095	1699.63635	536.91968	1413.87451	1542.42224	692.17487	1431.42847	1519.11047	594.62762	1450.76123	1381.95544	599.92194	1561.39368	1472.64319	458.67529	1462.33557	1108.31702	678.68530	1459.46179	1092.58594	579.38708	1423.24365	1227.21289	447.72455	1421.32629	973.63544	669.62341	1416.30164	974.97632	504.88849	1592.34729	996.35742	625.86603	1584.49255	997.70471	579.24963	1638.63098	1259.12097	572.87683	1614.01721	1131.39575	572.01898	1595.08801	1074.77979	566.24634	1593.22217	1028.74365	567.24530	1599.69763	989.04944	566.69012	1623.13977	889.92767	
212	1.055	287.82092	1472.18079	812.93372	292.72498	1519.33154	895.25031	343.37277	1468.98328	897.72437	421.69568	1559.07532	1110.68555	346.13867	1556.49756	1125.44751	434.95764	1462.11707	1403.80591	391.99338	1509.57520	1428.95288	393.26917	1562.85498	1394.27954	820.35736	1481.76526	772.07269	823.37183	1543.27490	848.69604	780.04865	1479.10571	853.68304	739.30042	1587.80835	1071.57043	814.21997	1591.74634	1077.10144	753.27576	1479.85889	1366.08362	793.63861	1532.11377	1384.87720	764.54413	1592.93848	1347.18213	402.11597	1392.27417	58.45022	447.52649	1473.01160	40.37160	325.54208	1494.17444	47.73268	412.65228	1676.81323	44.12957	451.51706	1587.06287	117.55109	355.89737	1607.07104	110.09126	483.23938	1503.41113	469.21722	377.42239	1491.38855	474.91272	382.69321	1483.69348	879.86932	639.43433	1389.05542	58.39167	587.41412	1458.16321	55.34774	698.54193	1489.34473	53.33181	630.29022	1673.04553	40.98957	593.08282	1582.45691	134.24980	680.94684	1605.09045	108.36620	599.40863	1528.56848	480.31839	704.69189	1507.65942	479.13229	725.49298	1467.83350	866.05890	642.18494	1427.95801	1699.03748	538.99866	1413.39917	1542.04736	694.04144	1431.46680	1518.62183	596.57770	1450.33533	1381.88989	601.44757	1561.03735	1472.39661	459.91486	1461.25415	1108.41492	679.79407	1458.35229	1092.34656	581.16431	1422.34778	1227.30078	448.79953	1420.52527	973.73907	670.49219	1415.33289	974.64941	505.71658	1591.53296	996.08270	626.85651	1583.29443	997.39380	580.20465	1637.86829	1258.59265	573.94440	1613.12109	1131.06689	572.90234	1594.11426	1074.48352	567.21356	1592.29468	1028.39099	568.34344	1598.39258	988.68872	567.57684	1622.21899	889.51752	
